<svg xmlns="http://www.w3.org/2000/svg" width="215.636" height="35.864" viewBox="0 0 215.636 35.864"><defs><style>.a{fill:#ffce00;}.b{fill:#fff;}</style></defs><g transform="translate(-80.25 -80.614)"><path class="a" d="M-19.5,0H-32.932V-34.909h13.3a19.585,19.585,0,0,1,9.315,2.088,14.569,14.569,0,0,1,6.068,6,19.252,19.252,0,0,1,2.139,9.366A19.315,19.315,0,0,1-4.244-8.088a14.554,14.554,0,0,1-6.034,6A19.279,19.279,0,0,1-19.5,0Zm-3.955-8.045h3.614a10.614,10.614,0,0,0,4.423-.835,5.671,5.671,0,0,0,2.8-2.881,13.649,13.649,0,0,0,.963-5.693,13.439,13.439,0,0,0-.98-5.693A5.7,5.7,0,0,0-15.5-26.028a11.355,11.355,0,0,0-4.611-.835h-3.341Z" transform="translate(298 116)"/><path class="b" d="M22.909-34.909h9.477v22.364a12.313,12.313,0,0,1-1.9,6.895,12.4,12.4,0,0,1-5.293,4.483A18.5,18.5,0,0,1,17.318.409,18.589,18.589,0,0,1,9.409-1.168,12.286,12.286,0,0,1,4.134-5.651,12.4,12.4,0,0,1,2.25-12.545V-34.909h9.477v21.545a5.78,5.78,0,0,0,.716,2.889,5.131,5.131,0,0,0,1.986,1.986,5.78,5.78,0,0,0,2.889.716,5.767,5.767,0,0,0,2.9-.716,5.148,5.148,0,0,0,1.977-1.986,5.78,5.78,0,0,0,.716-2.889Zm40.822,0V0H55.822L43.208-18.341H43V0H33.526V-34.909h8.045L53.981-16.636h.273V-34.909ZM64.871,0V-34.909h9.477V-7.636H88.462V0Zm56.5-17.455a19.655,19.655,0,0,1-2.267,9.827,15.143,15.143,0,0,1-6.119,6.051A17.969,17.969,0,0,1,104.4.477a17.871,17.871,0,0,1-8.616-2.071,15.218,15.218,0,0,1-6.1-6.068,19.64,19.64,0,0,1-2.259-9.793,19.715,19.715,0,0,1,2.259-9.827,15.1,15.1,0,0,1,6.1-6.051,17.991,17.991,0,0,1,8.616-2.054,17.969,17.969,0,0,1,8.591,2.054,15.143,15.143,0,0,1,6.119,6.051A19.655,19.655,0,0,1,121.375-17.455Zm-9.75,0a14.852,14.852,0,0,0-.827-5.293,6.8,6.8,0,0,0-2.437-3.273,6.788,6.788,0,0,0-3.963-1.116,6.788,6.788,0,0,0-3.963,1.116A6.8,6.8,0,0,0,98-22.747a14.852,14.852,0,0,0-.827,5.293A14.852,14.852,0,0,0,98-12.162a6.8,6.8,0,0,0,2.438,3.273A6.788,6.788,0,0,0,104.4-7.773a6.788,6.788,0,0,0,3.963-1.116,6.8,6.8,0,0,0,2.438-3.273A14.852,14.852,0,0,0,111.625-17.455Zm43.345-4.364h-9.614a6.657,6.657,0,0,0-.537-2.165,5.139,5.139,0,0,0-1.193-1.679,5.224,5.224,0,0,0-1.832-1.091,7.22,7.22,0,0,0-2.437-.384,6.821,6.821,0,0,0-4.031,1.159,7.075,7.075,0,0,0-2.489,3.324,14.323,14.323,0,0,0-.844,5.2,14.535,14.535,0,0,0,.861,5.361,6.73,6.73,0,0,0,2.5,3.239,6.975,6.975,0,0,0,3.938,1.082,7.712,7.712,0,0,0,2.352-.332,5.4,5.4,0,0,0,1.807-.963,5.109,5.109,0,0,0,1.253-1.526,6.12,6.12,0,0,0,.656-2.02l9.614.068a12.953,12.953,0,0,1-1.244,4.509,14.61,14.61,0,0,1-3.043,4.227A14.766,14.766,0,0,1,145.816-.7,17.813,17.813,0,0,1,139.083.477a17.8,17.8,0,0,1-8.616-2.062,14.881,14.881,0,0,1-6.017-6.068,20.06,20.06,0,0,1-2.207-9.8,19.776,19.776,0,0,1,2.25-9.827,15.094,15.094,0,0,1,6.068-6.051,17.7,17.7,0,0,1,8.523-2.054,19.586,19.586,0,0,1,6.085.9,14.726,14.726,0,0,1,4.875,2.634,13.142,13.142,0,0,1,3.375,4.253A15.536,15.536,0,0,1,154.969-21.818ZM155.9,0V-34.909h9.477V-20.8h.477l10.5-14.114H187.4l-11.8,15.545L187.677,0H176.359l-7.841-13.091L165.382-9V0Z" transform="translate(78 116)"/></g></svg>