<svg xmlns="http://www.w3.org/2000/svg" width="73" height="73" viewBox="0 0 73 73"><defs><style>.a{fill:#fff;}.b{fill:#ffce00;}</style></defs><g transform="translate(-228 2703)"><rect width="73" height="73" rx="8" transform="translate(228 -2703)"/><g transform="translate(-2.25 -0.091)"><path class="a" d="M22.909-34.909h9.477v22.364a12.313,12.313,0,0,1-1.9,6.895,12.4,12.4,0,0,1-5.293,4.483A18.5,18.5,0,0,1,17.318.409,18.589,18.589,0,0,1,9.409-1.168,12.286,12.286,0,0,1,4.134-5.651,12.4,12.4,0,0,1,2.25-12.545V-34.909h9.477v21.545a5.78,5.78,0,0,0,.716,2.889,5.131,5.131,0,0,0,1.986,1.986,5.78,5.78,0,0,0,2.889.716,5.767,5.767,0,0,0,2.9-.716,5.148,5.148,0,0,0,1.977-1.986,5.78,5.78,0,0,0,.716-2.889Z" transform="translate(234 -2649)"/><path class="b" d="M-19.5,0H-32.932V-34.909h13.3a19.585,19.585,0,0,1,9.315,2.088,14.569,14.569,0,0,1,6.068,6,19.252,19.252,0,0,1,2.139,9.366A19.315,19.315,0,0,1-4.244-8.088a14.554,14.554,0,0,1-6.034,6A19.279,19.279,0,0,1-19.5,0Zm-3.955-8.045h3.614a10.614,10.614,0,0,0,4.423-.835,5.671,5.671,0,0,0,2.8-2.881,13.649,13.649,0,0,0,.963-5.693,13.439,13.439,0,0,0-.98-5.693A5.7,5.7,0,0,0-15.5-26.028a11.355,11.355,0,0,0-4.611-.835h-3.341Z" transform="translate(299 -2649)"/></g></g></svg>